<svg version="1.2" xmlns="http://www.w3.org/2000/svg" viewBox="0 0 141 141" width="141" height="141">
	<title>logo-svg</title>
	<style>
		.s0 { fill: none;stroke: #000000;stroke-linejoin: round;stroke-width: .8 } 
		.s1 { fill: #000000 } 
	</style>
	<g id="Layer">
		<g id="Layer">
			<g id="Layer">
				<g id="Layer">
					<path id="Layer" fill-rule="evenodd" class="s0" d="m17.9 206.8q-0.1 0.1-0.4 0.1-0.8 0-1.2-0.6-1.1-1.3-1.4-1.9-4.4-8.3-8.3-17.9-0.6-1.5-0.9-2.7-0.7-1.8-1.4-3.5-0.7-1.6-1-1.6-0.3 0-0.3 1.8-0.2 3.8-0.2 6.3 0 2.5 0.2 4.6 0.1 0.6 0.1 1.9v2.4q0 1.2 0.1 2.9 0.1 1.7 0.1 2.6l0.2 1.9 0.2 2.3q0 0.5-0.1 0.7-0.2 0.2-0.5 0.4-0.2 0.1-0.4 0.1-0.7 0-1.1-0.5-0.2-0.2-0.3-0.4 0-0.3 0-0.5-0.8-5.6-0.7-8.9 0.1-1.2-0.1-3.6-0.1-1.8-0.1-2.6 0-2.1 0.1-6 0.2-4.6 0.3-6.8 0.1-1 0.6-2.9 0.1-0.2 0.4-0.4 0.3-0.2 0.6-0.3h0.2q0.8 0 1.1 0.6 0.2 0.5 0.4 0.9 0.1 0.5 0.4 1l1.1 2.3q0.7 1.6 1.6 3.6l5.7 12.8 1.8 4.2q1.3 3.4 2.5 5.2 0-1.7-0.3-6.9-0.4-4.5-0.4-7.5 0-6.8 0.2-13.6 0-0.8 0.5-2.5 0-0.1 0.3-0.2 0.3-0.2 0.6-0.2h0.2q0.6 0 0.8 0.5 0.1 0.4 0.1 1.1 0 5.4-0.1 8 0 2.5-0.1 3.8v3.8 13.4q0 0.6-0.2 1.9 0 0.7-0.9 0.9z"/>
					<path id="Layer" fill-rule="evenodd" class="s0" d="m31.4 206.8q-4.2 0-6.3 0-1.4 0-1.5-0.9-0.1-0.4-0.3-2-0.3-1.6-0.1-3.1 0.1-1.1 0.1-3.3v-3.2q0-1.7-0.2-5-0.1-4.9-0.1-7.4-0.1-2.9 0.2-5.9 0-0.4 0.3-1.8 0.5-0.1 1.2-0.2 0.7-0.1 1.3-0.1 0.8-0.1 2.4-0.1 1.6 0 2.4 0.1 0.7 0 1.2 0.1 0.6 0.4 0.6 0.6-0.1 0.5-0.6 0.7-0.7 0.2-2.2 0.3l-3.9-0.1q-0.3 1-0.3 1.1 0 7.9 0.1 11.9 0 0.1 0.1 0.7 0.6 0.1 1.8 0.1h2.3q1.8 0 2.6 0.1 0.3 0 0.5 0.2 0.2 0.2 0.4 0.4l0.1 0.1q0 0.2-0.4 0.4-0.3 0.2-0.6 0.3-2.7 0.1-4.1 0.2-0.8 0-2.4 0.1-0.3 0.6-0.3 0.7 0.1 8.3 0.3 12.4 0 0.1 0.3 0.9h2.5l3.2 0.1q1 0.1 1.2 0.7 0 0.3-0.3 0.5-0.4 0.3-0.9 0.4-0.2 0-0.6 0z"/>
					<path id="Layer" fill-rule="evenodd" class="s0" d="m53.7 206.8q-0.1 0.1-0.3 0.1-0.3 0-0.6-0.2-0.3-0.2-0.5-0.4l-0.4-1.5-0.2-1.4q-1.6-9-2.3-12.7 0-0.2-0.1-0.3-0.1-0.2-0.2-0.4-3-0.1-4.4-0.1-1.5 0-4.5 0.1-0.4 1.1-0.5 1.5-0.5 2.8-0.6 4.4l-0.6 5.2-0.2 2.2q-0.3 1.8-0.6 2.7-0.1 0.6-1 0.7-0.5 0-0.8-0.2-0.3-0.3-0.3-0.6-0.1-0.9 0-1.7l0.3-3q0.1-0.8 0.7-5.5 0.5-4.7 1.4-8.8 0.4-2.6 2.1-7.6 0.1-0.7 0.6-2 0.6-2 2.2-3 1.3-0.8 2.1-0.8 1.1 0 2.4 1 0.6 0.4 0.9 0.9 0.3 0.5 0.5 1.3 1 3.3 1.9 7.9 1 4.5 2.5 12.1 0.7 3.2 1.5 7.7v0.7q0 0.4-0.1 1.1-0.2 0.4-0.9 0.6zm-4.9-18.8q-0.2-0.9-0.5-2.7l-1.8-7.7q-0.2-0.9-0.5-1.3-0.2-0.5-1-0.9-0.9 0.4-1.2 0.9-0.4 0.5-0.7 1.4-0.4 1.1-1 3.4-0.2 0.7-0.4 1.7-0.2 0.9-0.3 1.5-0.4 2.4-0.8 3.6 1.9 0.3 4.6 0.3 2.3 0 3.6-0.2z"/>
					<path id="Layer" fill-rule="evenodd" class="s0" d="m68.1 206.8q-1 0.1-3.1 0.1-2.6 0-4.5-0.3-1.8-0.1-2-1.4l-0.2-0.9-0.3-11.1q-0.1-11.5-0.3-17.1 0-0.9 0.1-1.4 0-0.2 0.3-0.7 0.4-0.6 1.1-0.4 0.3 0 0.5 0.2 0.3 0.1 0.3 0.3 0.3 0.8 0.3 1.9l0.1 4.5q0 2.9 0.1 8.9l0.2 3.7q0.2 2.3 0.2 3.4 0.1 2.9 0.1 4.3l0.1 2.1v1.9q1.2 0.3 3 0.3h2.7q0.4 0 1-0.1 0.6-0.1 1 0 0.3 0 0.6 0.2 0.4 0.2 0.4 0.4v0.1q0 0.4-0.4 0.7-0.5 0.3-1.3 0.4z"/>
					<path id="Layer" fill-rule="evenodd" class="s0" d="m74.9 206.5q-0.8 0-1.4-0.4-0.7-0.4-0.7-1 0-0.5 0.6-0.8 0.5-0.3 1.2-0.3 0.9 0 1.5 0.4 0.6 0.4 0.6 1 0 0.5-0.5 0.8-0.5 0.3-1.3 0.3z"/>
					<path id="Layer" fill-rule="evenodd" class="s0" d="m85.1 206.9q-0.4 0-0.7-0.3-0.3-0.2-0.3-0.6l-0.1-1.5q-0.1-0.8-0.2-1.9-0.1-1.1-0.1-2.6l0.1-5.4q0-2.5-0.2-5.5-0.1-0.6-0.1-1.9l0.1-4.4-0.1-3.5q-0.1-1.1-0.1-3.4 0-0.9 0.2-2.3h11.6q0.8 0 1.2 0 0.7 0.2 0.7 0.6 0 0.2-0.2 0.4-0.3 0.3-0.6 0.3-0.9 0.2-2 0.2h-4.3q-4 0-3.9 0.1v3.9q-0.1 1.2 0 3.7 0.1 0.7 0.1 1.3-0.1 0.6-0.1 1.1 0 1.2 0.2 2.4 1.3 0.3 2.7 0.3 1.5-0.1 2-0.1l5 0.2q0.4 0 0.8 0.2 0.5 0.4 0.5 0.6 0 0.1-0.1 0.3-0.2 0.2-0.4 0.3-0.8 0.1-1.7 0.1h-7.3q-0.5 0-1.3 0.1-0.1 0.1-0.2 0.2-0.1 0.1-0.1 0.2l0.1 6.4 0.1 0.9q-0.2 2-0.2 3 0 2 0.2 4.2 0 0.9 0 1.4-0.2 0.9-1.2 1z"/>
					<path id="Layer" fill-rule="evenodd" class="s0" d="m106.4 206q-3.9-1.8-5.1-5-0.9-2.4-0.9-4.4v-8.6-8.6q0.1-1.7 0.6-4.7 0.2-0.3 0.6-0.7 0.3-0.2 0.9-0.2 0.3 0 0.5 0.1 0.3 0.1 0.4 0.3 0.2 0.3 0 0.7 0 0.4-0.1 1.4l-0.2 2.5v10.4q0 2.5-0.1 3.7l-0.1 1.8q0 3.4 1 5.8 0.9 2.5 3.7 3.9 1.4 0.7 3 0.7 1.3 0 2.3-0.6 1.1-0.5 1.5-1.6 1-2.4 1.3-4.9 0.4-2.6 0.4-5.8 0-1.8-0.3-4.3v-1.7l-0.3-9.5q0-0.5 0-1-0.1-0.5-0.1-0.9 0.1-0.7 1.1-0.7h0.2q0.5 0 0.8 0.2 0.3 0.2 0.4 0.5 0 0.3 0 0.7 0 0.4 0 0.7l0.7 13.8 0.1 2q0 3.8-0.8 8.3-0.3 1.5-1 3.3-0.7 1.5-2.5 2.4-1.8 0.9-4 0.9-2.2 0-4-0.9z"/>
					<path id="Layer" fill-rule="evenodd" class="s0" d="m139.2 206.8q-0.1 0.1-0.4 0.1-0.8 0-1.2-0.6-1.1-1.3-1.4-1.9-4.4-8.3-8.3-17.9-0.6-1.5-0.9-2.7-0.7-1.8-1.4-3.5-0.7-1.6-1-1.6-0.3 0-0.3 1.8-0.2 3.8-0.2 6.3 0 2.5 0.2 4.6 0.1 0.6 0.1 1.9v2.4q0 1.2 0.1 2.9 0.1 1.7 0.1 2.6l0.2 1.9 0.2 2.3q0 0.5-0.1 0.7-0.2 0.2-0.5 0.4-0.2 0.1-0.4 0.1-0.7 0-1.1-0.5-0.2-0.2-0.3-0.4 0-0.3 0-0.5-0.8-5.6-0.7-8.9 0.1-1.2 0-3.6-0.2-1.8-0.2-2.6 0-2.1 0.2-6 0.1-4.6 0.3-6.8 0-1 0.5-2.9 0.1-0.2 0.4-0.4 0.3-0.2 0.6-0.3h0.2q0.8 0 1.1 0.6 0.2 0.5 0.4 0.9 0.1 0.5 0.4 1l1.1 2.3q0.7 1.6 1.6 3.6l5.7 12.8 1.8 4.2q1.3 3.4 2.5 5.2 0-1.7-0.3-6.9-0.4-4.5-0.4-7.5 0-6.8 0.2-13.6 0-0.8 0.5-2.5 0-0.1 0.3-0.2 0.3-0.2 0.6-0.2h0.2q0.6 0 0.8 0.5 0.1 0.4 0.1 1.1 0 5.4-0.1 8 0 2.5-0.1 3.8v3.8 13.4q0 0.6-0.2 1.9 0 0.7-0.9 0.9z"/>
				</g>
				<g id="Layer">
					<g id="Layer">
						<path id="Layer" class="s1" d="m17.9 206.8c-0.1 0.1-0.2 0.1-0.4 0.1-0.5 0-0.9-0.2-1.2-0.6-0.7-0.8-1.2-1.5-1.4-1.9-2.9-5.5-5.7-11.5-8.3-17.9-0.3-1-0.7-1.8-0.9-2.7-0.5-1.2-0.9-2.4-1.4-3.5-0.4-1.1-0.8-1.6-1-1.6-0.3 0-0.3 0.6-0.3 1.8-0.1 2.6-0.2 4.6-0.2 6.3q0 2.5 0.2 4.6c0.1 0.4 0.1 1.1 0.1 1.9v2.4c0 0.8 0 1.8 0.1 2.9 0.1 1.1 0.1 2 0.1 2.6l0.2 1.9 0.2 2.3c0 0.4-0.1 0.6-0.1 0.7-0.1 0.1-0.3 0.2-0.4 0.3q-0.4 0.2-0.5 0.2-0.8 0-1.1-0.5-0.2-0.2-0.2-0.4c-0.1-0.2-0.1-0.4-0.1-0.5q-0.8-5.6-0.7-8.9c0.1-0.8 0-2-0.1-3.6 0-1.2-0.1-2.1-0.1-2.6 0-1.4 0.1-3.4 0.1-6 0.1-3.1 0.3-5.3 0.3-6.8 0.1-0.7 0.3-1.6 0.6-2.9 0-0.2 0.1-0.3 0.4-0.4 0.2-0.1 0.3-0.2 0.6-0.3h0.2q0.8 0 1.1 0.6c0.2 0.3 0.3 0.6 0.4 0.9 0.1 0.4 0.2 0.7 0.4 1l1.1 2.3c0.5 1 1 2.2 1.6 3.6l5.7 12.8 1.8 4.2c0.9 2.3 1.7 4 2.5 5.2 0-1.2-0.1-3.5-0.3-6.9-0.3-3-0.4-5.5-0.4-7.5q0-6.8 0.2-13.6 0-0.8 0.5-2.5c0-0.1 0.1-0.2 0.3-0.3 0.2 0 0.3-0.1 0.6-0.1h0.2c0.4 0 0.7 0.1 0.8 0.5 0.1 0.2 0.1 0.6 0.1 1.1 0 3.6 0 6.2-0.1 8 0 1.7 0 3-0.1 3.8v3.8 13.4c0 0.4-0.1 1-0.2 1.9q0 0.7-0.9 0.9z"/>
					</g>
					<g id="Layer">
						<path id="Layer" class="s1" d="m31.4 206.8c-2.8 0-4.9 0-6.3 0-0.9 0-1.5-0.3-1.5-0.9-0.1-0.2-0.2-0.9-0.3-2-0.2-1.1-0.2-2.1-0.1-3.1 0.1-0.7 0.1-1.8 0.1-3.3v-3.2c0-1.1-0.1-2.8-0.2-5-0.1-3.2-0.1-5.7-0.1-7.4q0-2.9 0.2-5.9c0-0.2 0.1-0.9 0.3-1.8 0.4-0.1 0.7-0.1 1.3-0.2 0.4-0.1 0.8-0.1 1.2-0.1 0.5-0.1 1.3-0.1 2.4-0.1q1.7 0 2.4 0.1 0.7 0 1.2 0.1c0.4 0.3 0.6 0.4 0.6 0.6 0 0.3-0.3 0.6-0.6 0.7q-0.7 0.2-2.2 0.3l-3.9-0.1c-0.2 0.7-0.3 1-0.3 1.1 0 5.3 0 9.2 0.1 11.9 0 0.1 0 0.3 0.1 0.7q0.6 0.1 1.8 0.1h2.3c1.2 0 2.1 0 2.6 0.1 0.2 0 0.4 0.1 0.5 0.2 0.2 0.1 0.3 0.3 0.4 0.4l0.1 0.1c0 0.2-0.1 0.3-0.3 0.4q-0.4 0.2-0.7 0.3c-1.8 0-3.2 0.1-4.1 0.2q-0.8 0-2.4 0.1c-0.3 0.4-0.3 0.6-0.3 0.7 0 5.5 0.2 9.7 0.3 12.4 0 0.1 0 0.3 0.3 0.9h2.5l3.2 0.1c0.7 0.1 1.1 0.3 1.2 0.7 0 0.2-0.1 0.4-0.3 0.5-0.3 0.2-0.6 0.3-0.9 0.4-0.1 0-0.3 0-0.6 0z"/>
					</g>
					<g id="Layer">
						<path id="Layer" fill-rule="evenodd" class="s1" d="m53.7 206.8c-0.1 0.1-0.2 0.1-0.3 0.1-0.3 0-0.4-0.1-0.6-0.2q-0.4-0.2-0.5-0.4l-0.4-1.5-0.2-1.4c-1-6-1.8-10.2-2.3-12.7 0-0.1 0-0.2-0.1-0.3-0.1-0.2-0.1-0.3-0.2-0.4-2-0.1-3.5-0.1-4.4-0.1-1 0-2.5 0-4.5 0.1-0.3 0.7-0.4 1.2-0.5 1.5-0.3 1.8-0.5 3.3-0.6 4.4l-0.6 5.2-0.2 2.2c-0.3 1.2-0.4 2.1-0.6 2.7 0 0.4-0.4 0.7-1 0.7-0.3 0-0.5-0.1-0.8-0.2-0.2-0.2-0.3-0.4-0.3-0.6q-0.2-0.9 0-1.7l0.3-3q0.1-0.8 0.7-5.5c0.4-3.1 0.8-6 1.4-8.8 0.3-1.7 0.9-4.3 2.1-7.6 0-0.4 0.3-1.1 0.6-2 0.4-1.3 1.2-2.4 2.2-3 0.8-0.5 1.6-0.8 2.1-0.8 0.7 0 1.5 0.3 2.4 1q0.6 0.4 0.9 0.9c0.2 0.3 0.3 0.8 0.5 1.3 0.7 2.2 1.3 4.8 1.9 7.9 0.6 3 1.5 7.1 2.5 12.1 0.5 2.1 0.9 4.7 1.4 7.7l0.1 0.7c0 0.3-0.1 0.6-0.1 1.1q-0.1 0.4-0.9 0.6zm-4.9-18.8c-0.2-0.6-0.3-1.5-0.5-2.7l-1.8-7.7q-0.2-0.9-0.4-1.4c-0.2-0.2-0.5-0.5-1.1-0.8-0.6 0.3-0.9 0.6-1.2 0.9-0.2 0.3-0.4 0.8-0.7 1.4-0.3 0.7-0.6 1.9-1 3.4-0.2 0.5-0.3 1-0.4 1.7-0.1 0.6-0.2 1.1-0.3 1.5-0.3 1.6-0.6 2.8-0.8 3.6 1.3 0.2 2.8 0.3 4.6 0.3q2.3 0 3.6-0.2z"/>
					</g>
					<g id="Layer">
						<path id="Layer" class="s1" d="m68.1 206.8c-0.7 0-1.7 0.1-3.1 0.1q-2.6 0-4.5-0.3-1.8-0.1-2-1.4l-0.2-0.9-0.3-11.1c0-7.7-0.2-13.4-0.3-17.1 0-0.6 0-1.1 0.1-1.4 0-0.1 0.1-0.4 0.3-0.7q0.3-0.6 1.1-0.4c0.2 0 0.3 0.1 0.6 0.2q0.2 0.1 0.2 0.3c0.2 0.5 0.3 1.1 0.3 1.9l0.1 4.5c0 1.9 0 4.9 0.1 8.9l0.2 3.7c0.1 1.5 0.2 2.7 0.2 3.4 0.1 2 0.1 3.4 0.1 4.3l0.1 2.1v1.9c0.8 0.2 1.8 0.3 3 0.3h2.7c0.3 0 0.6-0.1 1-0.1 0.4-0.1 0.8-0.1 1 0q0.3 0 0.7 0.2c0.2 0.1 0.3 0.2 0.3 0.4v0.1q0 0.4-0.4 0.7c-0.3 0.2-0.8 0.3-1.3 0.4z"/>
					</g>
					<g id="Layer">
						<path id="Layer" class="s1" d="m74.9 206.5c-0.5 0-1-0.2-1.4-0.4q-0.7-0.4-0.7-1c0-0.3 0.2-0.6 0.6-0.8 0.3-0.2 0.7-0.3 1.2-0.3 0.6 0 1.1 0.1 1.5 0.4 0.4 0.2 0.6 0.6 0.6 1q0 0.5-0.5 0.7c-0.4 0.3-0.7 0.4-1.3 0.4z"/>
					</g>
					<g id="Layer">
						<path id="Layer" class="s1" d="m85.1 206.9q-0.3 0-0.7-0.3c-0.2-0.1-0.3-0.4-0.3-0.6l-0.1-1.5c-0.1-0.6-0.1-1.2-0.2-1.9-0.1-0.8-0.1-1.6-0.1-2.6l0.1-5.4q0-2.5-0.2-5.5c-0.1-0.4-0.1-1-0.1-1.9l0.1-4.4-0.1-3.5c-0.1-0.7-0.1-1.9-0.1-3.4 0-0.6 0.1-1.3 0.2-2.3h11.6q0.8 0 1.2 0c0.5 0.2 0.7 0.3 0.7 0.6q0 0.2-0.2 0.4c-0.2 0.2-0.4 0.3-0.6 0.3-0.6 0.1-1.3 0.2-2 0.2h-4.3c-2.7 0-4 0-3.9 0.1v3.9c-0.1 0.8 0 2 0 3.7 0.1 0.5 0.1 0.9 0.1 1.3-0.1 0.5-0.1 0.8-0.1 1.1 0 0.8 0.1 1.6 0.2 2.4 0.8 0.2 1.8 0.3 2.8 0.2 1 0 1.6 0 1.9 0l5 0.2c0.3 0 0.6 0.1 0.8 0.2 0.4 0.3 0.5 0.5 0.5 0.6 0 0.1 0 0.2-0.1 0.3-0.1 0.1-0.2 0.2-0.4 0.3-0.5 0.1-1.1 0.1-1.7 0.1h-7.3c-0.4 0-0.8 0-1.3 0.1-0.1 0-0.1 0.1-0.1 0.2-0.1 0-0.2 0.1-0.2 0.2l0.1 6.4 0.1 0.9c-0.1 1.4-0.2 2.4-0.2 3q0 2 0.2 4.2c0 0.6 0 1.1 0 1.4-0.1 0.6-0.5 0.9-1.2 1z"/>
					</g>
					<g id="Layer">
						<path id="Layer" class="s1" d="m106.4 206c-2.6-1.2-4.2-2.9-5.1-5q-0.9-2.4-0.9-4.4v-8.6-8.6c0.1-1.2 0.3-2.7 0.6-4.7 0.1-0.2 0.3-0.5 0.6-0.7 0.2-0.1 0.5-0.2 0.9-0.2 0.2 0 0.3 0.1 0.6 0.1 0.1 0.1 0.2 0.2 0.3 0.3 0.1 0.2 0.1 0.5 0 0.7 0 0.3 0 0.7-0.1 1.4l-0.2 2.5v10.4c0 1.6 0 2.8-0.1 3.7l-0.1 1.8c0 2.3 0.3 4.2 1 5.8 0.6 1.6 1.8 2.9 3.7 3.9 0.9 0.5 1.9 0.7 3 0.7 0.9 0 1.7-0.2 2.4-0.6 0.7-0.3 1.1-0.9 1.4-1.6q1-2.4 1.4-4.9c0.2-1.7 0.3-3.6 0.3-5.8q0-1.8-0.3-4.3v-1.7l-0.3-9.5c0-0.3 0-0.7 0-1-0.1-0.4-0.1-0.7-0.1-0.9q0.1-0.7 1.1-0.7h0.2c0.3 0 0.6 0 0.8 0.2 0.2 0.1 0.3 0.3 0.4 0.5 0 0.2 0 0.4 0 0.7 0 0.2 0 0.5 0 0.7l0.7 13.8 0.1 2c0 2.5-0.2 5.3-0.8 8.3-0.2 1-0.5 2.1-1 3.3q-0.7 1.5-2.5 2.3c-1.2 0.7-2.5 1-4 1-1.4 0-2.8-0.3-4-0.9z"/>
					</g>
					<g id="Layer">
						<path id="Layer" class="s1" d="m135.2 357.8c-0.1 0.1-0.2 0.1-0.4 0.1-0.5 0-0.9-0.2-1.2-0.6-0.7-0.8-1.2-1.5-1.4-1.9-2.9-5.5-5.7-11.5-8.3-17.9-0.3-1-0.7-1.8-0.9-2.7-0.5-1.2-0.9-2.4-1.4-3.5-0.4-1.1-0.8-1.6-1-1.6-0.3 0-0.3 0.6-0.3 1.8-0.1 2.6-0.2 4.6-0.2 6.3q0 2.5 0.2 4.6c0.1 0.4 0.1 1.1 0.1 1.9v2.4c0 0.8 0 1.8 0.1 2.9 0.1 1.1 0.1 2 0.1 2.6l0.2 1.9 0.2 2.3c0 0.4-0.1 0.6-0.1 0.7-0.1 0.1-0.3 0.2-0.4 0.3q-0.4 0.2-0.5 0.2-0.8 0-1.1-0.5-0.2-0.2-0.2-0.4c-0.1-0.2-0.1-0.4-0.1-0.5q-0.8-5.6-0.7-8.9c0.1-0.8 0-2 0-3.6-0.1-1.2-0.2-2.1-0.2-2.6 0-1.4 0.1-3.4 0.2-6 0-3.1 0.2-5.3 0.3-6.8 0-0.7 0.2-1.6 0.5-2.9 0.1-0.2 0.1-0.3 0.4-0.4 0.2-0.1 0.3-0.2 0.6-0.3h0.2q0.8 0 1.1 0.6c0.2 0.3 0.3 0.6 0.4 0.9 0.1 0.4 0.2 0.7 0.4 1l1.1 2.3c0.5 1 1 2.2 1.6 3.6l5.7 12.8 1.8 4.2c0.9 2.3 1.7 4 2.5 5.2 0-1.2-0.1-3.5-0.3-6.9-0.3-3-0.4-5.5-0.4-7.5q0-6.8 0.2-13.6 0-0.8 0.5-2.5c0-0.1 0.1-0.2 0.3-0.3 0.2 0 0.3-0.1 0.6-0.1h0.2c0.4 0 0.7 0.1 0.8 0.5 0.1 0.2 0.1 0.6 0.1 1.1 0 3.6 0 6.2-0.1 8 0 1.7 0 3-0.1 3.8v3.8 13.4c0 0.4-0.1 1-0.2 1.9q0 0.7-0.9 0.9z"/>
					</g>
				</g>
			</g>
		</g>
	</g>
</svg>