<svg version="1.2" xmlns="http://www.w3.org/2000/svg" viewBox="0 0 287 288" width="287" height="288">
	<title>infinite-craft-svg</title>
	<defs>
		<clipPath clipPathUnits="userSpaceOnUse" id="cp1">
			<path d="m285.11 101.09c0-5.57-4.52-10.09-10.09-10.09h-263.93c-5.57 0-10.09 4.52-10.09 10.09v85.11c0 5.57 4.52 10.09 10.09 10.09h263.93c5.57 0 10.09-4.52 10.09-10.09z"/>
		</clipPath>
	</defs>
	<style>
		tspan { white-space:pre } 
		.s0 { fill: #ffffff } 
		.s1 { fill: none;stroke: #f1f1f1;stroke-linecap: round;stroke-linejoin: round;stroke-width: 1.5 } 
		.s2 { fill: none;stroke: #f1f1f1;stroke-linecap: round;stroke-linejoin: round;stroke-width: 1.2 } 
		.s3 { fill: none;stroke: #f1f1f1;stroke-linecap: round;stroke-linejoin: round;stroke-width: 2 } 
		.s4 { fill: #757575 } 
		.s5 { fill: #000000;stroke: #000000;stroke-linejoin: round;stroke-width: .7 } 
		.t6 { font-size: 24px;fill: #000000;font-weight: 400;font-family: "DejaVuSans", "DejaVu Sans" } 
		.s7 { fill: none;stroke: #000000;stroke-linecap: round;stroke-linejoin: round;stroke-width: 2 } 
	</style>
	<g id="Layer">
		<g id="Layer">
			<g id="wonders-of-street-view">
				<path id="Layer" fill-rule="evenodd" class="s0" d="m285.1 101.1c0-5.6-4.5-10.1-10.1-10.1h-263.9c-5.6 0-10.1 4.5-10.1 10.1v85.1c0 5.6 4.5 10.1 10.1 10.1h263.9c5.6 0 10.1-4.5 10.1-10.1z"/>
				<g id="Clip-Path" clip-path="url(#cp1)">
					<g id="Layer">
						<g id="Layer">
							<path id="Layer" fill-rule="evenodd" class="s1" d="m85 107.4l27.9-16.4"/>
						</g>
						<g id="Layer">
							<path id="Layer" fill-rule="evenodd" class="s1" d="m85 166.9l23.1 17.1"/>
						</g>
						<g id="Layer">
							<path id="Layer" fill-rule="evenodd" class="s2" d="m1 158.6l51 37.7"/>
						</g>
						<g id="Layer">
							<path id="Layer" fill-rule="evenodd" class="s1" d="m48.4 122.3l-23.6-14.9-9.9 20.1 41.2 16.2 15.4-38.7"/>
						</g>
						<g id="Layer">
							<path id="Layer" fill-rule="evenodd" class="s1" d="m231 180.5l41.4-21.7-13.5-30.5 26.2-11"/>
						</g>
						<g id="Layer">
							<path id="Layer" fill-rule="evenodd" class="s1" d="m231 180.5l23.5 15.8"/>
						</g>
						<g id="Layer">
							<path id="Layer" fill-rule="evenodd" class="s1" d="m230.1 124.9l13.4-23.9-35.2-10"/>
						</g>
						<g id="Layer">
							<path id="Layer" fill-rule="evenodd" class="s1" d="m246 151.1l-20.1-7.4-9.9 21.2"/>
						</g>
						<g id="Layer">
							<path id="Layer" fill-rule="evenodd" class="s1" d="m85 150.2l-27.1 27.1-21.1-17.1"/>
						</g>
						<g id="Layer">
							<path id="Layer" fill-rule="evenodd" class="s3" d="m164.9 110l24.7-19"/>
						</g>
						<g id="Layer">
							<path id="Layer" class="s4" d="m57.8 179.2c-1 0-1.8-0.8-1.8-1.9 0-1 0.8-1.8 1.8-1.8 1 0 1.9 0.8 1.9 1.8 0 1.1-0.9 1.9-1.9 1.9z"/>
						</g>
						<g id="Layer">
							<path id="Layer" class="s4" d="m84.7 168.6c-1.1 0-1.9-0.9-1.9-1.9 0-1 0.8-1.8 1.9-1.8 1 0 1.8 0.8 1.8 1.8 0 1-0.8 1.9-1.8 1.9z"/>
						</g>
						<g id="Layer">
							<path id="Layer" class="s4" d="m107.1 185.5c-1.1 0-1.9-0.9-1.9-1.9 0-1 0.8-1.9 1.9-1.9 1 0 1.8 0.9 1.8 1.9 0 1-0.8 1.9-1.8 1.9z"/>
						</g>
						<g id="Layer">
							<path id="Layer" class="s4" d="m216 166.7c-1 0-1.9-0.8-1.9-1.8 0-1.1 0.9-1.9 1.9-1.9 1 0 1.9 0.8 1.9 1.9 0 1-0.9 1.8-1.9 1.8z"/>
						</g>
						<g id="Layer">
							<path id="Layer" class="s4" d="m246.3 152.9c-1 0-1.9-0.8-1.9-1.8 0-1.1 0.9-1.9 1.9-1.9 1 0 1.8 0.8 1.8 1.9 0 1-0.8 1.8-1.8 1.8z"/>
						</g>
						<g id="Layer">
							<path id="Layer" class="s4" d="m231.3 182.3c-1 0-1.8-0.8-1.8-1.9 0-1 0.8-1.8 1.8-1.8 1 0 1.9 0.8 1.9 1.8 0 1.1-0.9 1.9-1.9 1.9z"/>
						</g>
						<g id="Layer">
							<path id="Layer" class="s4" d="m252.6 197.3c-1 0-1.8-0.8-1.8-1.9 0-1 0.8-1.8 1.8-1.8 1.1 0 1.9 0.8 1.9 1.8 0 1.1-0.8 1.9-1.9 1.9z"/>
						</g>
						<g id="Layer">
							<path id="Layer" class="s4" d="m271.8 160.1c-1 0-1.8-0.8-1.8-1.9 0-1 0.8-1.8 1.8-1.8 1 0 1.9 0.8 1.9 1.8 0 1.1-0.9 1.9-1.9 1.9z"/>
						</g>
						<g id="Layer">
							<path id="Layer" class="s4" d="m259.9 130.4c-1 0-1.9-0.9-1.9-1.9 0-1 0.9-1.9 1.9-1.9 1 0 1.9 0.9 1.9 1.9 0 1-0.9 1.9-1.9 1.9z"/>
						</g>
						<g id="Layer">
							<path id="Layer" class="s4" d="m230.3 126.3c-1.1 0-1.9-0.8-1.9-1.9 0-1 0.8-1.8 1.9-1.8 1 0 1.8 0.8 1.8 1.8 0 1.1-0.8 1.9-1.8 1.9z"/>
						</g>
						<g id="Layer">
							<path id="Layer" class="s4" d="m242.7 103.1c-1 0-1.8-0.8-1.8-1.8 0-1.1 0.8-1.9 1.8-1.9 1.1 0 1.9 0.8 1.9 1.9 0 1-0.8 1.8-1.9 1.8z"/>
						</g>
						<g id="Layer">
							<path id="Layer" class="s4" d="m48.4 124.2c-1 0-1.9-0.9-1.9-1.9 0-1 0.9-1.9 1.9-1.9 1 0 1.9 0.9 1.9 1.9 0 1-0.9 1.9-1.9 1.9z"/>
						</g>
						<g id="Layer">
							<path id="Layer" class="s4" d="m71.5 106.6c-1 0-1.8-0.8-1.8-1.9 0-1 0.8-1.8 1.8-1.8 1 0 1.9 0.8 1.9 1.8 0 1.1-0.9 1.9-1.9 1.9z"/>
						</g>
						<g id="Layer">
							<path id="Layer" class="s4" d="m24.8 109.6c-1 0-1.9-0.8-1.9-1.8 0-1 0.9-1.9 1.9-1.9 1 0 1.9 0.9 1.9 1.9 0 1-0.9 1.8-1.9 1.8z"/>
						</g>
						<g id="Layer">
							<path id="Layer" class="s4" d="m15.9 128.9c-1.1 0-1.9-0.8-1.9-1.8 0-1.1 0.8-1.9 1.9-1.9 1 0 1.8 0.8 1.8 1.9 0 1-0.8 1.8-1.8 1.8z"/>
						</g>
						<g id="Layer">
							<path id="Layer" class="s4" d="m55.8 144.5c-1 0-1.8-0.8-1.8-1.8 0-1.1 0.8-1.9 1.8-1.9 1 0 1.9 0.8 1.9 1.9 0 1-0.9 1.8-1.9 1.8z"/>
						</g>
						<g id="Layer">
							<path id="Layer" class="s4" d="m36.8 161.8c-0.8 0-1.6-0.7-1.6-1.6 0-0.9 0.8-1.6 1.6-1.6 0.9 0 1.6 0.7 1.6 1.6 0 0.9-0.7 1.6-1.6 1.6z"/>
						</g>
						<g id="Layer">
							<path id="Layer" class="s5" d="m143 172.6q-0.5 4.4-3.2 6.8-2.7 2.3-7.3 2.3-4.9 0-7.9-3.5-2.9-3.5-2.9-9.4v-2.7q0-3.9 1.4-6.8 1.3-2.9 3.9-4.5 2.5-1.6 5.8-1.6 4.5 0 7.1 2.5 2.7 2.5 3.1 6.8h-3.6q-0.5-3.3-2.1-4.8-1.6-1.5-4.5-1.5-3.5 0-5.5 2.6-2 2.6-2 7.4v2.7q0 4.5 1.9 7.2 1.9 2.6 5.3 2.6 3.1 0 4.7-1.3 1.6-1.4 2.2-4.8z"/>
							<path id="Layer" class="s5" d="m157.5 163.9q-0.8-0.1-1.8-0.1-3.5 0-4.7 2.9v14.7h-3.5v-20.7h3.4l0.1 2.4q1.7-2.7 4.9-2.7 1 0 1.6 0.2z"/>
							<path id="Layer" fill-rule="evenodd" class="s5" d="m172.7 181.4q-0.3-0.6-0.5-2.2-2.5 2.5-5.9 2.5-3.1 0-5-1.7-2-1.7-2-4.4 0-3.2 2.5-5 2.4-1.7 6.9-1.7h3.4v-1.7q0-1.8-1.1-2.9-1.1-1.1-3.3-1.1-1.8 0-3.1 0.9-1.3 1-1.3 2.4h-3.5q0-1.6 1.1-3 1.1-1.5 2.9-2.3 1.9-0.8 4.2-0.8 3.5 0 5.5 1.7 2.1 1.8 2.1 4.9v9.5q0 2.9 0.8 4.6v0.3zm-5.9-2.7q1.7 0 3.2-0.9 1.4-0.8 2.1-2.2v-4.2h-2.7q-6.5 0-6.5 3.7 0 1.7 1.1 2.6 1.1 1 2.8 1z"/>
							<path id="Layer" class="s5" d="m182.9 181.4v-17.9h-3.3v-2.8h3.3v-2.1q0-3.3 1.8-5.1 1.8-1.8 5-1.8 1.2 0 2.4 0.3l-0.2 2.9q-0.9-0.2-1.9-0.2-1.7 0-2.6 1-1 1-1 2.9v2.1h4.4v2.8h-4.4v17.9z"/>
							<path id="Layer" class="s5" d="m199.5 155.7v5h3.9v2.8h-3.9v12.8q0 1.2 0.5 1.8 0.5 0.6 1.8 0.6 0.6 0 1.7-0.2v2.9q-1.4 0.3-2.8 0.3-2.3 0-3.5-1.4-1.2-1.4-1.2-4v-12.8h-3.8v-2.8h3.8v-5z"/>
						</g>
						<text id="Custom" style="transform: matrix(1.873,0,0,1.873,49.127,142.127)" >
							<tspan x="0" y="0" class="t6">C</tspan><tspan  y="0" class="t6">u</tspan><tspan  y="0" class="t6">s</tspan><tspan  y="0" class="t6">t</tspan><tspan  y="0" class="t6">o</tspan><tspan  y="0" class="t6">m</tspan><tspan  y="0" class="t6">
</tspan>
						</text>
					</g>
				</g>
				<path id="Layer" fill-rule="evenodd" class="s7" d="m285.1 101.1c0-5.6-4.5-10.1-10.1-10.1h-263.9c-5.6 0-10.1 4.5-10.1 10.1v85.1c0 5.6 4.5 10.1 10.1 10.1h263.9c5.6 0 10.1-4.5 10.1-10.1z"/>
			</g>
		</g>
	</g>
</svg>